<svg width="436" height="92" viewBox="0 0 436 92" fill="none" xmlns="http://www.w3.org/2000/svg">
<g clip-path="url(#clip0_21_63)">
<mask id="mask0_21_63" style="mask-type:luminance" maskUnits="userSpaceOnUse" x="0" y="0" width="436" height="92">
<path d="M436 0.197449H0V91.8026H436V0.197449Z" fill="white"/>
</mask>
<g mask="url(#mask0_21_63)">
<path d="M0 1.59521H18.5103C29.8038 1.6268 35.4466 7.83384 35.4466 20.2124V45.1432C35.4466 54.28 31.3896 60.1712 23.2717 62.8167C21.3239 63.4484 18.4946 63.7643 14.7799 63.7643H12.714V90.0495H0V1.59521ZM12.714 14.1751V51.141H15.6338C17.4007 51.141 18.6126 51.0225 19.2737 50.7777C21.5796 49.8459 22.7326 47.9703 22.7326 45.1432V20.2163C22.7326 16.1889 20.891 14.1751 17.2039 14.1751H12.714Z" fill="#003870"/>
<path d="M84.8784 72.8696C84.8784 85.252 78.783 91.4591 66.5923 91.4907C54.4331 91.4907 48.3535 85.2836 48.3535 72.8696V1.59521H61.0676V72.8696C61.0676 76.8654 62.9091 78.8673 66.5923 78.8673C70.2755 78.8673 72.1643 76.8694 72.1643 72.8696V1.59521H84.8784V72.8696Z" fill="#003870"/>
<path d="M97.2146 90.0495V1.59521H109.929V77.4696H130.19V90.0455H97.2146V90.0495Z" fill="#003870"/>
<path d="M146.701 63.9894V72.8696C146.701 76.8654 148.559 78.8673 152.273 78.8673C155.988 78.8673 157.798 76.8694 157.798 72.8696V71.2467C157.798 66.9784 153.828 61.9914 145.891 56.278C137.954 50.5961 133.983 43.6862 133.983 35.5405V18.7712C133.983 6.38869 140.063 0.197449 152.226 0.197449C164.389 0.197449 170.512 6.38869 170.512 18.7712V30.672H157.798V18.7712C157.798 14.8029 155.957 12.805 152.273 12.7734H152.183C148.527 12.7734 146.701 14.7714 146.701 18.7712V35.272C146.701 39.2086 150.668 44.0337 158.609 49.7432C166.546 55.4251 170.512 62.2323 170.512 70.1648V72.8696C170.512 85.2836 164.433 91.4907 152.273 91.4907C140.083 91.4591 133.987 85.252 133.987 72.8696V63.9894H146.701Z" fill="#003870"/>
<path d="M180.912 1.59521H213.888V14.1751H193.627V51.2792H211.059V63.9025H193.627V77.4735H213.888V90.0495H180.912V1.59521Z" fill="#003870"/>
<path d="M282.015 62.1889L296.795 1.59916H309.509V90.0495H297.334V40.4129L286.461 90.0495H277.836L266.649 40.4129V90.0495H254.34V1.59521H267.054L282.015 62.1889Z" fill="#003870"/>
<path d="M341.965 21.8826L332.977 90.0455H320.173L333.292 1.59521H350.724L363.8 90.0455H350.948L341.965 21.8826Z" fill="#003870"/>
<path d="M374.551 1.59521H387.265V90.0455H374.551V1.59521Z" fill="#003870"/>
<path d="M412.166 63.9894V72.8696C412.166 76.8654 414.023 78.8673 417.738 78.8673C421.452 78.8673 423.262 76.8694 423.262 72.8696V71.2467C423.262 66.9784 419.292 61.9914 411.355 56.278C403.418 50.5961 399.452 43.6862 399.452 35.5405V18.7712C399.452 6.38869 405.531 0.197449 417.69 0.197449C429.85 0.197449 435.976 6.38869 435.976 18.7712V30.672H423.262V18.7712C423.262 14.8029 421.421 12.805 417.738 12.7734H417.647C413.991 12.7734 412.166 14.7714 412.166 18.7712V35.272C412.166 39.2086 416.136 44.0337 424.073 49.7432C432.01 55.4251 435.98 62.2323 435.98 70.1648V72.8696C435.98 85.2836 429.901 91.4907 417.738 91.4907C405.547 91.4591 399.452 85.252 399.452 72.8696V63.9894H412.166Z" fill="#003870"/>
</g>
</g>
<defs>
<clipPath id="clip0_21_63">
<rect width="436" height="92" fill="white"/>
</clipPath>
</defs>
</svg>
