<svg width="462" height="143" viewBox="0 0 462 143" fill="none" xmlns="http://www.w3.org/2000/svg">
<g clip-path="url(#clip0_21_62)">
<mask id="mask0_21_62" style="mask-type:luminance" maskUnits="userSpaceOnUse" x="0" y="0" width="462" height="143">
<path d="M462 0H0V143H462V0Z" fill="white"/>
</mask>
<g mask="url(#mask0_21_62)">
<mask id="mask1_21_62" style="mask-type:luminance" maskUnits="userSpaceOnUse" x="0" y="0" width="462" height="143">
<path d="M462 0H0V143H462V0Z" fill="white"/>
</mask>
<g mask="url(#mask1_21_62)">
<path d="M124.386 46.8716C122.168 44.3244 92.4434 9.9361 92.1423 9.58639C91.586 8.9439 91.0379 8.31561 90.4899 7.69016C86.2872 2.89411 79.8896 0.0255865 73.3786 0.0170576C64.9762 0.00568587 55.9037 0 44.832 0C37.8864 0 31.1113 0.00284294 24.7025 0.00284294H22.3371C14.0654 0.00568587 8.8661 3.65033 5.95838 6.70649C2.00853 10.86 0.00662567 16.1479 0.00662567 22.4223C0.00662567 23.3406 0.00378611 24.2588 0.00378611 25.197C-0.00189305 28.1053 -0.00757222 31.1131 0.0378611 34.1608C0.108851 39.0334 1.67346 43.8923 4.44203 47.8438C5.84479 49.8454 7.29582 51.8836 8.90869 54.1184C8.97969 54.2179 9.01944 54.3372 9.01944 54.4566C9.01379 58.7323 9.01379 63.008 9.01094 67.2838V67.5113C9.0081 72.5633 9.0081 77.6093 8.99957 82.6585C8.98822 89.8398 12.1828 96.4867 17.7682 100.896C18.5462 101.51 19.3953 102.224 20.2954 102.977L28.1611 109.547L28.3059 109.67C39.261 118.818 50.588 128.279 61.7505 137.567C65.8281 140.959 71.0016 142.886 76.3233 142.997C77.5272 143.023 78.6999 143.026 79.4751 143.026C79.935 143.026 80.3811 143.026 80.8098 143.023C81.2329 143.023 81.6589 143.02 82.0848 143.02C83.1295 143.02 83.9078 143.029 84.6063 143.046C84.8249 143.051 85.0292 143.054 85.2338 143.054C91.2082 143.054 96.7654 140.828 100.883 136.791C105.156 132.598 107.49 126.843 107.459 120.589C107.451 118.664 107.442 116.714 107.439 114.767H108.019C114.419 114.764 119.783 112.66 123.965 108.521C128.211 104.316 130.366 98.8916 130.369 92.3985V84.9187C130.369 77.729 130.369 70.2916 130.389 62.9826C130.406 56.9752 128.33 51.4031 124.386 46.8716Z" fill="white"/>
<path d="M88.3346 12.8871C87.7894 12.2588 87.2469 11.6362 86.7048 11.0165C83.442 7.29221 78.4585 5.06618 73.3727 5.06051C64.9762 5.04913 55.9093 5.04346 44.8435 5.04346C37.8951 5.04346 31.1198 5.04628 24.7081 5.04628H22.3428C17.135 5.04913 12.85 6.77765 9.61005 10.1863C5.04686 14.988 5.04402 20.5887 5.04402 22.428C5.04402 23.3492 5.04117 24.2674 5.04117 25.2113C5.03548 28.0997 5.02983 31.0847 5.07242 34.0926C5.1292 37.9646 6.37008 41.8225 8.5651 44.9556C10.2121 47.3066 11.93 49.7118 13.8978 52.4295C14.0001 52.5687 14.0568 52.7423 14.0568 52.9128C14.0512 57.7059 14.0483 62.4994 14.0455 67.2925V67.5228C14.0426 72.5748 14.0426 77.6264 14.0341 82.6756C14.0256 88.3813 16.4591 93.4503 20.886 96.9443C21.7209 97.6039 22.5983 98.3402 23.5297 99.1192L31.3896 105.684L31.5997 105.857C42.5321 114.986 53.8365 124.427 64.9734 133.695C68.1308 136.322 72.3051 137.877 76.428 137.96C77.5869 137.982 78.7224 137.985 79.4779 137.985C79.9208 137.985 80.3498 137.985 80.7643 137.982H80.8011C81.2357 137.982 81.6616 137.979 82.0875 137.979C83.178 137.979 83.9928 137.988 84.7368 138.008C84.9102 138.011 85.0718 138.013 85.2366 138.013C89.953 138.013 94.1443 136.345 97.3616 133.189C100.701 129.911 102.453 125.561 102.427 120.612C102.41 117.01 102.405 113.334 102.402 109.726H103.671L108.016 109.721C109.89 109.721 115.595 109.715 120.428 104.93C125.334 100.071 125.334 94.2892 125.337 92.3898V84.91C125.337 77.7176 125.337 70.2774 125.357 62.9628C125.371 58.1923 123.721 53.7715 120.592 50.1753C118.366 47.6277 88.6357 13.2339 88.3346 12.8871ZM123.236 84.9187V92.3958C123.236 94.0787 123.233 99.2016 118.951 103.443C114.731 107.619 109.674 107.625 108.013 107.625L103.668 107.631H100.303C100.306 111.907 100.306 116.319 100.329 120.629C100.352 124.998 98.8184 128.825 95.8934 131.696C93.0767 134.46 89.3939 135.918 85.2366 135.918C85.0888 135.918 84.9414 135.915 84.7909 135.913C84.0299 135.893 83.1978 135.884 82.0875 135.884C81.6557 135.884 81.227 135.884 80.7955 135.887C80.3724 135.887 79.9322 135.89 79.4779 135.89C78.7339 135.89 77.6122 135.887 76.4707 135.864C72.8136 135.79 69.1106 134.411 66.3136 132.083C55.1684 122.807 43.8525 113.357 32.9088 104.217L32.7355 104.072L24.8813 97.51C23.9386 96.7198 23.047 95.9721 22.1894 95.2954C18.2765 92.2079 16.1269 87.7276 16.1354 82.6784C16.1439 77.6264 16.1468 72.5748 16.1468 67.5228V67.2925C16.1496 62.2433 16.1496 57.1972 16.1581 52.148C16.1581 52.0287 16.1184 51.9094 16.0502 51.8126C13.895 48.8448 12.0521 46.2631 10.2859 43.7472C8.32942 40.9554 7.22482 37.5154 7.17369 34.0613C7.1311 31.0677 7.13679 28.0912 7.14247 25.2141C7.14532 24.2703 7.14532 23.3492 7.14532 22.428C7.14532 20.7962 7.14813 15.8267 11.1321 11.6334C13.9603 8.65683 17.7341 7.14723 22.3456 7.14723H24.711C31.1255 7.14437 37.9006 7.14437 44.8521 7.14437C55.9121 7.14437 64.9762 7.15008 73.3758 7.16142C77.8678 7.16713 82.2634 9.12592 85.1342 12.4038C85.6767 13.0207 86.2164 13.6405 86.7558 14.2631C87.0568 14.6099 116.787 49.0066 119.014 51.5653C121.805 54.7721 123.273 58.7153 123.261 62.9684C123.236 70.2861 123.236 77.7259 123.236 84.9187Z" fill="#003870"/>
<path d="M83.7344 16.8729C83.2034 16.2588 82.6668 15.6447 82.1302 15.0335C80.0033 12.6057 76.7263 11.1558 73.3616 11.15C64.9932 11.1387 55.952 11.133 44.9087 11.133C38.2981 11.133 31.8581 11.1358 25.7361 11.1358H22.34C21.0423 11.1358 17.0981 11.1387 14.0143 14.3825C11.1265 17.4187 11.1265 21.0577 11.1265 22.4252C11.1265 23.3491 11.1236 24.2731 11.1236 25.2198C11.1179 28.0883 11.1122 31.0506 11.1548 34.0015C11.1946 36.6626 12.0408 39.3093 13.543 41.4529C15.2552 43.8978 19.2136 49.3792 20.003 50.4734C20.0938 50.6014 20.1421 50.7493 20.1421 50.9055C20.1393 52.5575 20.1308 62.3741 20.1279 67.2924V67.5596C20.1251 72.6001 20.1251 77.6406 20.1166 82.6811C20.1109 86.4795 21.7209 89.8454 24.6514 92.1595C25.5572 92.8731 26.463 93.6351 27.4257 94.4426L35.5296 101.212C45.8743 109.851 57.5988 119.639 68.8609 129.013C70.9763 130.773 73.7788 131.816 76.5533 131.873C77.6521 131.895 78.7453 131.898 79.4696 131.898C79.9152 131.898 80.3467 131.898 80.7643 131.895C81.2045 131.895 81.6474 131.893 82.0931 131.893C82.8628 131.893 83.8766 131.895 84.8901 131.921C85.0066 131.924 85.1232 131.924 85.2366 131.924C88.3259 131.924 91.0463 130.858 93.1024 128.842C95.2403 126.744 96.3593 123.91 96.3423 120.646C96.3194 116.228 96.3194 111.762 96.3166 107.44V103.651L97.7734 103.642C98.5513 103.637 99.3265 103.637 100.099 103.637H103.663L108.004 103.631C109.396 103.631 113.09 103.628 116.143 100.603C119.244 97.5329 119.244 93.9308 119.246 92.3926V84.7082C119.246 77.5783 119.246 70.2036 119.266 62.9485C119.275 59.6762 118.144 56.6457 115.998 54.1778C113.769 51.6192 84.0299 17.214 83.7344 16.8729ZM115.893 84.7141V92.3957C115.893 93.7032 115.893 96.137 113.786 98.2208C111.71 100.276 109.208 100.276 108.004 100.279L103.66 100.285H100.105C99.3238 100.285 98.543 100.288 97.7591 100.29L92.9602 100.319V107.412C92.9661 111.747 92.966 116.234 92.9886 120.671C93 123.04 92.2505 124.984 90.7566 126.451C89.3228 127.858 87.4658 128.572 85.2393 128.572C85.1513 128.572 85.0635 128.572 84.9782 128.569C84.0157 128.544 83.0528 128.538 82.0959 128.538C81.6474 128.538 81.2017 128.538 80.7584 128.541C80.3467 128.541 79.9153 128.544 79.4723 128.544C78.5549 128.544 77.5837 128.538 76.624 128.518C74.6279 128.478 72.5295 127.697 71.0103 126.434C59.8932 117.18 48.6033 107.753 37.6849 98.6359L29.5978 91.8811C28.6125 91.0565 27.6841 90.2747 26.7385 89.527C24.6031 87.8413 23.4758 85.4788 23.4815 82.6954C23.49 77.6406 23.4928 72.5859 23.4928 67.5339V67.3008C23.4957 61.9221 23.4957 56.5403 23.507 51.1616V49.9164C23.5099 49.7003 23.4417 49.4898 23.3139 49.3165L22.5813 48.31C20.1933 45.0321 18.197 42.2431 16.3002 39.5341C15.1814 37.936 14.5481 35.9605 14.5197 33.9646C14.4771 31.0392 14.4828 28.0912 14.4885 25.2368C14.4914 24.2901 14.4914 23.3633 14.4914 22.4394C14.4914 21.251 14.4914 18.7748 16.4535 16.7108C18.5463 14.5076 21.2126 14.5076 22.3485 14.5076H24.7138C31.1397 14.5047 37.935 14.5047 44.9174 14.5047C54.2084 14.5047 63.832 14.5076 73.3644 14.5218C75.741 14.5246 78.1349 15.5737 79.6142 17.2595C80.148 17.8679 80.679 18.4763 81.2017 19.0818C81.5024 19.4287 111.241 53.8369 113.476 56.4039C115.081 58.2462 115.924 60.5147 115.918 62.9569C115.893 70.2008 115.893 77.5783 115.893 84.7141Z" fill="#003870"/>
<path d="M99.2811 49.8653C97.7678 48.1026 96.2542 46.34 94.5449 44.3499C94.5078 44.9695 94.4738 45.2966 94.4738 45.6264C94.471 57.3023 94.4738 68.9754 94.471 80.6513C94.471 82.0531 94.4426 82.0702 93.0822 82.0702C83.4475 82.0674 73.8128 82.0872 64.1753 82.0417C63.2839 82.0389 62.9659 82.2918 62.8778 82.9143V111.182C66.9695 114.596 71.0613 118.011 75.1589 121.419C75.5734 121.763 76.2123 121.991 76.752 122.002C79.5431 122.059 82.3373 121.982 85.1287 122.053C86.1907 122.079 86.4831 121.763 86.4776 120.697C86.4349 112.168 86.4689 103.64 86.4321 95.1107C86.4263 94.0644 86.7103 93.7346 87.7866 93.7433C94.5248 93.7917 101.263 93.7687 107.999 93.7631C109.382 93.7631 109.387 93.7517 109.387 92.3926C109.39 82.5705 109.382 72.7481 109.407 62.9256C109.41 62.0244 109.154 61.3421 108.567 60.6654C105.451 57.0862 102.374 53.4702 99.2811 49.8653Z" fill="#003870"/>
<path d="M124.386 46.8716C122.168 44.3244 92.4434 9.9361 92.1423 9.58639C91.586 8.9439 91.0379 8.31561 90.4899 7.69016C86.2872 2.89411 79.8896 0.0255865 73.3786 0.0170576C64.9762 0.00568587 55.9037 0 44.832 0C37.8864 0 31.1113 0.00284294 24.7025 0.00284294H22.3371C14.0654 0.00568587 8.8661 3.65033 5.95838 6.70649C2.00853 10.86 0.00662567 16.1479 0.00662567 22.4223C0.00662567 23.3406 0.00378611 24.2588 0.00378611 25.197C-0.00189305 28.1053 -0.00757222 31.1131 0.0378611 34.1608C0.108851 39.0334 1.67346 43.8923 4.44203 47.8438C5.84479 49.8454 7.29582 51.8836 8.90869 54.1184C8.97969 54.2179 9.01944 54.3372 9.01944 54.4566C9.01379 58.7323 9.01379 63.008 9.01094 67.2838V67.5113C9.0081 72.5633 9.0081 77.6093 8.99957 82.6585C8.98822 89.8398 12.1828 96.4867 17.7682 100.896C18.5462 101.51 19.3953 102.224 20.2954 102.977L28.1611 109.547L28.3059 109.67C39.261 118.818 50.588 128.279 61.7505 137.567C65.8281 140.959 71.0016 142.886 76.3233 142.997C77.5272 143.023 78.6999 143.026 79.4751 143.026C79.935 143.026 80.3811 143.026 80.8098 143.023C81.2329 143.023 81.6589 143.02 82.0848 143.02C83.1295 143.02 83.9078 143.029 84.6063 143.046C84.8249 143.051 85.0292 143.054 85.2338 143.054C91.2082 143.054 96.7654 140.828 100.883 136.791C105.156 132.598 107.49 126.843 107.459 120.589C107.451 118.664 107.442 116.714 107.439 114.767H108.019C114.419 114.764 119.783 112.66 123.965 108.521C128.211 104.316 130.366 98.8916 130.369 92.3985V84.9187C130.369 77.729 130.369 70.2916 130.389 62.9826C130.406 56.9752 128.33 51.4031 124.386 46.8716ZM129.528 84.9215V92.4013C129.525 98.6644 127.455 103.887 123.375 107.927C119.357 111.907 114.189 113.925 108.019 113.931H106.602C106.604 116.163 106.61 118.394 106.621 120.6C106.653 126.627 104.406 132.165 100.298 136.2C96.3395 140.083 90.9897 142.224 85.2366 142.224C85.0406 142.224 84.8419 142.221 84.6317 142.215C83.9248 142.198 83.1409 142.19 82.0903 142.19C81.6644 142.19 81.2385 142.19 80.8153 142.192C80.3866 142.192 79.9409 142.196 79.4834 142.196C78.7113 142.196 77.5442 142.192 76.3486 142.167C71.2912 142.065 66.1718 140.154 62.2954 136.933C51.136 127.645 39.8062 118.184 28.851 109.035L28.7062 108.913L20.8406 102.343C19.9348 101.584 19.0801 100.868 18.2935 100.245C12.9125 95.9975 9.83158 89.5897 9.84292 82.67C9.85146 77.6208 9.8543 72.5716 9.8543 67.52V67.2925C9.8543 62.9057 9.85711 58.5162 9.8628 54.1295C9.8628 54.0502 9.83724 53.9733 9.7918 53.9079C8.10227 51.5708 6.59162 49.4502 5.13489 47.3692C2.46003 43.5538 0.949365 38.8602 0.881216 34.1551C0.835783 31.1131 0.844302 28.1082 0.847142 25.2027C0.849979 24.2617 0.849979 23.3462 0.849979 22.428C0.85282 16.3753 2.77522 11.2836 6.57174 7.29213C10.6352 3.0192 15.9395 0.850039 22.3428 0.847197H24.7082C31.117 0.844354 37.8923 0.844354 44.8379 0.844354C55.9093 0.844354 64.979 0.850039 73.3813 0.861413C79.6541 0.869941 85.8158 3.63043 89.8621 8.24738C90.4101 8.87282 90.9585 9.50111 91.5121 10.1408C91.8131 10.4876 121.538 44.8759 123.756 47.4259C127.563 51.8011 129.568 57.1829 129.551 62.9854C129.528 70.2948 129.528 77.729 129.528 84.9215Z" fill="#003870"/>
<path d="M77.5557 47.6023C73.0234 47.6336 68.4915 47.6506 63.9596 47.6134C63.0481 47.6051 62.8466 47.9405 62.8608 48.7678C62.9003 51.281 62.875 53.7941 62.8778 56.3072C62.8806 58.8547 62.9003 61.4047 62.8663 63.9519C62.8549 64.7623 63.1417 65.0521 63.9624 65.0465C68.4943 65.0208 73.0265 65.0239 77.5584 65.0493C78.3277 65.0549 78.6063 64.7734 78.6035 64.0087C78.5834 58.8774 78.5806 53.7457 78.6035 48.6144C78.6063 47.8326 78.3135 47.5964 77.5557 47.6023Z" fill="#003870"/>
<path d="M45.4286 94.2777V90.3743C45.4116 76.569 45.4116 62.7607 45.4428 48.9554C45.4456 47.8866 45.1473 47.5567 44.0912 47.6023C42.1745 47.6789 40.2519 47.6277 38.3325 47.6277C36.8074 47.6277 36.7904 47.6249 36.7876 46.053C36.7793 41.962 36.7821 37.8738 36.7876 33.7827C36.7904 32.2333 36.8018 32.2333 38.3807 32.2333C53.0443 32.2333 67.7048 32.2304 82.3685 32.2304H83.726C83.4961 31.8438 83.4305 31.6818 83.3199 31.5538C80.4633 28.2078 77.6181 24.8532 74.7188 21.544C74.4292 21.2142 73.8128 21.0237 73.3501 21.0237C56.3494 21.001 39.346 21.0067 22.3456 21.0124C20.9883 21.0124 20.9883 21.0209 20.9854 22.4338C20.9854 26.2434 20.957 30.0528 21.011 33.8623C21.0195 34.5105 21.241 35.258 21.613 35.7869C24.1175 39.3605 26.6731 42.8972 29.2514 46.4197C29.7739 47.1333 30.0067 47.8382 30.0067 48.7279C29.9812 60.0545 29.9953 71.3779 29.9783 82.7041C29.9783 83.4348 30.1799 83.9549 30.7592 84.4128C32.0455 85.4277 33.2949 86.4938 34.5557 87.5456C38.1792 90.5733 41.8051 93.5982 45.4286 96.6259V95.9805C45.3603 95.6649 45.4172 95.1392 45.4286 94.2777Z" fill="#003870"/>
<path d="M147.397 41.5034H160.754C168.904 41.5264 172.976 45.9956 172.976 54.9082V72.8583C172.976 79.437 170.048 83.6787 164.19 85.5833C162.785 86.0384 160.743 86.2656 158.063 86.2656H156.572V105.191H147.397V41.5034ZM156.572 50.5611V77.1769H158.679C159.954 77.1769 160.828 77.0916 161.305 76.9152C162.969 76.2444 163.801 74.8941 163.801 72.8583V54.911C163.801 52.011 162.472 50.5611 159.812 50.5611H156.572Z" fill="#003870"/>
<path d="M208.647 92.8216C208.647 101.737 204.248 106.206 195.451 106.229C186.677 106.229 182.29 101.76 182.29 92.8216V41.5034H191.465V92.8216C191.465 95.6987 192.793 97.1398 195.451 97.1398C198.109 97.1398 199.472 95.7015 199.472 92.8216V41.5034H208.647V92.8216Z" fill="#003870"/>
<path d="M217.549 105.191V41.5034H226.724V96.1336H241.345V105.188H217.549V105.191Z" fill="#003870"/>
<path d="M253.26 86.428V92.8216C253.26 95.699 254.6 97.1402 257.28 97.1402C259.961 97.1402 261.267 95.7018 261.267 92.8216V91.6533C261.267 88.58 258.402 84.9893 252.674 80.8758C246.947 76.7848 244.082 71.8097 244.082 65.9446V53.8707C244.082 44.9553 248.469 40.4976 257.246 40.4976C266.024 40.4976 270.442 44.9553 270.442 53.8707V62.4392H261.267V53.8707C261.267 51.0135 259.938 49.5751 257.28 49.5521H257.215C254.577 49.5521 253.26 50.9908 253.26 53.8707V65.7512C253.26 68.5858 256.122 72.0598 261.852 76.1707C267.58 80.2616 270.442 85.163 270.442 90.8743V92.8216C270.442 101.76 266.055 106.229 257.28 106.229C248.483 106.206 244.085 101.737 244.085 92.8216V86.428H253.26Z" fill="#003870"/>
<path d="M277.947 41.5034H301.743V50.5611H287.122V77.2764H299.701V86.3651H287.122V96.1364H301.743V105.191H277.947V41.5034Z" fill="#003870"/>
<path d="M350.905 85.1313L361.57 41.5065H370.745V105.191H361.959V69.4524L354.113 105.191H347.887L339.816 69.4524V105.191H330.934V41.5034H340.108L350.905 85.1313Z" fill="#003870"/>
<path d="M394.164 56.1106L387.681 105.188H378.441L387.907 41.5034H400.487L409.921 105.188H400.646L394.164 56.1106Z" fill="#003870"/>
<path d="M417.68 41.5034H426.854V105.188H417.68V41.5034Z" fill="#003870"/>
<path d="M444.824 86.428V92.8216C444.824 95.699 446.163 97.1402 448.844 97.1402C451.525 97.1402 452.829 95.7018 452.829 92.8216V91.6533C452.829 88.58 449.964 84.9893 444.238 80.8758C438.512 76.7848 435.65 71.8097 435.65 65.9446V53.8707C435.65 44.9553 440.034 40.4976 448.809 40.4976C457.585 40.4976 462.007 44.9553 462.007 53.8707V62.4392H452.829V53.8707C452.829 51.0135 451.501 49.5751 448.844 49.5521H448.778C446.142 49.5521 444.824 50.9908 444.824 53.8707V65.7512C444.824 68.5858 447.689 72.0598 453.416 76.1707C459.142 80.2616 462.007 85.163 462.007 90.8743V92.8216C462.007 101.76 457.623 106.229 448.844 106.229C440.048 106.206 435.65 101.737 435.65 92.8216V86.428H444.824Z" fill="#003870"/>
</g>
</g>
</g>
<defs>
<clipPath id="clip0_21_62">
<rect width="462" height="143" fill="white"/>
</clipPath>
</defs>
</svg>
