<svg width="126" height="143" viewBox="0 0 126 143" fill="none" xmlns="http://www.w3.org/2000/svg">
<g clip-path="url(#clip0_21_64)">
<mask id="mask0_21_64" style="mask-type:luminance" maskUnits="userSpaceOnUse" x="0" y="0" width="126" height="143">
<path d="M126 0H0V143H126V0Z" fill="white"/>
</mask>
<g mask="url(#mask0_21_64)">
<mask id="mask1_21_64" style="mask-type:luminance" maskUnits="userSpaceOnUse" x="0" y="0" width="126" height="143">
<path d="M126 0H0V143H126V0Z" fill="white"/>
</mask>
<g mask="url(#mask1_21_64)">
<path d="M120.246 46.8717C118.102 44.3243 89.3665 9.9361 89.0755 9.5864C88.5374 8.9439 88.0076 8.3156 87.4778 7.69017C83.4152 2.89411 77.2306 0.0255865 70.9361 0.0170577C62.8131 0.0056859 54.0427 0 43.3395 0C36.6251 0 30.0752 0.00284294 23.8795 0.00284294H21.5929C13.5964 0.0056859 8.57012 3.65033 5.75913 6.7065C1.94069 10.86 0.00539816 16.1479 0.00539816 22.4223C0.00539816 23.3406 0.00265305 24.2588 0.00265305 25.197C-0.00283714 28.1053 -0.00832733 31.1132 0.0355941 34.1607C0.104222 39.0337 1.61677 43.8923 4.29324 47.844C5.64934 49.8453 7.05206 51.8837 8.61127 54.1183C8.67991 54.2177 8.71836 54.337 8.71836 54.4567C8.71285 58.7323 8.71285 63.008 8.71011 67.284V67.5113C8.70737 72.5633 8.70737 77.6093 8.69912 82.6587C8.68816 89.8397 11.7764 96.4867 17.176 100.896C17.9282 101.51 18.7489 102.224 19.6191 102.977L27.2231 109.547L27.363 109.669C37.9537 118.818 48.9038 128.279 59.6947 137.567C63.6368 140.959 68.6384 142.886 73.7825 142.997C74.9465 143.023 76.0801 143.026 76.8297 143.026C77.2744 143.026 77.7053 143.026 78.12 143.023C78.5289 143.023 78.9408 143.02 79.3526 143.02C80.3625 143.02 81.1147 143.028 81.7901 143.045C82.0015 143.051 82.199 143.054 82.3969 143.054C88.1726 143.054 93.5445 140.828 97.525 136.791C101.656 132.598 103.913 126.844 103.883 120.589C103.874 118.664 103.866 116.714 103.863 114.767H104.423C110.611 114.764 115.796 112.66 119.84 108.521C123.944 104.316 126.027 98.8917 126.03 92.3983V84.9187C126.03 77.729 126.03 70.2917 126.049 62.9827C126.066 56.9753 124.059 51.4033 120.246 46.8717Z" fill="white"/>
<path d="M85.3945 12.8871C84.8673 12.2588 84.343 11.6362 83.8187 11.0164C80.6648 7.29216 75.8472 5.06616 70.9306 5.06046C62.8134 5.0491 54.0482 5.0434 43.3504 5.0434C36.6335 5.0434 30.0835 5.04626 23.8851 5.04626H21.5984C16.5639 5.0491 12.4216 6.7776 9.28939 10.1863C4.87804 14.988 4.87527 20.5886 4.87527 22.428C4.87527 23.3491 4.87253 24.2674 4.87253 25.2112C4.86705 28.0997 4.86157 31.0848 4.90272 34.0927C4.95764 37.9647 6.15725 41.8227 8.2792 44.9554C9.87138 47.3067 11.5322 49.7117 13.4345 52.4297C13.5333 52.569 13.5882 52.7424 13.5882 52.913C13.5827 57.706 13.58 62.4994 13.5773 67.2924V67.5227C13.5745 72.5747 13.5745 77.6267 13.5663 82.6757C13.558 88.3814 15.9106 93.4504 20.1902 96.9444C20.9972 97.604 21.8455 98.3404 22.7459 99.1194L30.3443 105.684L30.5474 105.857C41.116 114.986 52.0444 124.427 62.8105 133.695C65.8632 136.322 69.8984 137.877 73.8843 137.959C75.0042 137.982 76.1024 137.985 76.8326 137.985C77.2609 137.985 77.6753 137.985 78.0762 137.982H78.1116C78.5318 137.982 78.9437 137.979 79.3552 137.979C80.4093 137.979 81.1972 137.988 81.9164 138.008C82.084 138.011 82.2403 138.013 82.3995 138.013C86.9593 138.013 91.011 136.345 94.121 133.189C97.3493 129.911 99.0431 125.561 99.0183 120.612C99.0018 117.01 98.9964 113.334 98.9938 109.726H100.221L104.421 109.721C106.233 109.721 111.747 109.715 116.419 104.93C121.163 100.072 121.163 94.289 121.166 92.39V84.91C121.166 77.7177 121.166 70.2777 121.185 62.9627C121.199 58.1924 119.604 53.7714 116.579 50.175C114.427 47.6277 85.6855 13.2339 85.3945 12.8871ZM119.134 84.9187V92.3957C119.134 94.0787 119.132 99.2017 114.992 103.443C110.913 107.62 106.024 107.625 104.418 107.625L100.218 107.631H96.9652C96.9678 111.907 96.9678 116.319 96.9897 120.629C97.0116 124.998 95.5293 128.825 92.7019 131.696C89.9788 134.46 86.4183 135.918 82.3995 135.918C82.2567 135.918 82.114 135.915 81.9686 135.913C81.2329 135.893 80.4286 135.884 79.3552 135.884C78.9379 135.884 78.5235 135.884 78.1061 135.887C77.6972 135.887 77.2718 135.89 76.8326 135.89C76.1133 135.89 75.029 135.887 73.9256 135.864C70.3899 135.79 66.8103 134.411 64.1063 132.083C53.3318 122.807 42.3924 113.357 31.8129 104.217L31.6455 104.072L24.0525 97.51C23.1412 96.7197 22.2792 95.972 21.4502 95.2954C17.6674 92.208 15.5894 87.7277 15.5976 82.6784C15.6059 77.6267 15.6086 72.5747 15.6086 67.5227V67.2924C15.6114 62.2434 15.6114 57.197 15.6196 52.148C15.6196 52.0287 15.5812 51.9094 15.5153 51.8127C13.4318 48.8447 11.6502 46.2634 9.94272 43.7474C8.05137 40.9554 6.98353 37.5154 6.9341 34.0614C6.89294 31.0677 6.89842 28.0911 6.9039 25.2141C6.90667 24.2702 6.90667 23.3491 6.90667 22.428C6.90667 20.7962 6.90941 15.8267 10.7608 11.6333C13.4949 8.6568 17.1431 7.1472 21.6012 7.1472H23.8878C30.089 7.14433 36.6389 7.14433 43.3588 7.14433C54.0511 7.14433 62.8134 7.15003 70.9332 7.1614C75.2761 7.1671 79.5253 9.12586 82.3009 12.4038C82.8252 13.0207 83.3466 13.6405 83.8683 14.2631C84.1593 14.6099 112.901 49.0067 115.053 51.5654C117.751 54.772 119.17 58.7154 119.159 62.9684C119.134 70.286 119.134 77.726 119.134 84.9187Z" fill="#003870"/>
<path d="M80.9474 16.8729C80.4341 16.2588 79.9153 15.6447 79.3964 15.0335C77.3405 12.6056 74.1724 11.1557 70.9196 11.1501C62.8298 11.1387 54.0894 11.133 43.4136 11.133C37.0231 11.133 30.7973 11.1358 24.8788 11.1358H21.5957C20.3412 11.1358 16.5282 11.1387 13.5471 14.3825C10.7553 17.4187 10.7553 21.0577 10.7553 22.4252C10.7553 23.3491 10.7525 24.2731 10.7525 25.2198C10.7471 28.0883 10.7416 31.0507 10.7827 34.0017C10.8212 36.6627 11.6392 39.3094 13.0914 41.453C14.7467 43.898 18.5733 49.379 19.3365 50.4737C19.4243 50.6017 19.471 50.7494 19.471 50.9057C19.4682 52.5574 19.46 62.374 19.4573 67.2924V67.5597C19.4545 72.6004 19.4545 77.6407 19.4463 82.6814C19.4408 86.4794 20.9972 89.8457 23.8302 92.1597C24.7059 92.8734 25.5816 93.635 26.5122 94.4427L34.3468 101.212C44.3472 109.851 55.6817 119.64 66.5686 129.013C68.6136 130.773 71.3231 131.816 74.0052 131.873C75.0673 131.895 76.1243 131.898 76.8242 131.898C77.2554 131.898 77.6724 131.898 78.0762 131.895C78.5015 131.895 78.9298 131.893 79.3607 131.893C80.1047 131.893 81.0847 131.895 82.0647 131.921C82.1771 131.924 82.2899 131.924 82.3995 131.924C85.3864 131.924 88.016 130.858 90.0036 128.842C92.0705 126.744 93.152 123.91 93.1356 120.646C93.1137 116.228 93.1137 111.762 93.1111 107.44V103.651L94.5193 103.642C95.2715 103.637 96.0207 103.637 96.7674 103.637H100.213L104.41 103.631C105.755 103.631 109.326 103.628 112.277 100.603C115.275 97.5327 115.275 93.9307 115.278 92.3927V84.7084C115.278 77.5784 115.278 70.2037 115.297 62.9484C115.305 59.6764 114.212 56.6457 112.137 54.178C109.982 51.6194 81.2329 17.2141 80.9474 16.8729ZM112.036 84.714V92.3957C112.036 93.7034 112.036 96.137 109.999 98.2207C107.992 100.276 105.574 100.276 104.41 100.279L100.21 100.285H96.7728C96.0181 100.285 95.2631 100.288 94.5055 100.29L89.8664 100.319V107.412C89.8718 111.748 89.8718 116.234 89.8937 120.672C89.9047 123.04 89.18 124.984 87.736 126.451C86.35 127.858 84.5544 128.572 82.4024 128.572C82.3173 128.572 82.2322 128.572 82.1497 128.569C81.2191 128.544 80.2887 128.538 79.3636 128.538C78.9298 128.538 78.499 128.538 78.0707 128.541C77.6724 128.541 77.2554 128.544 76.8271 128.544C75.9403 128.544 75.0016 128.538 74.0738 128.518C72.1439 128.478 70.1153 127.696 68.6468 126.434C57.8997 117.18 46.9851 107.753 36.4301 98.636L28.6121 91.881C27.6596 91.0567 26.7619 90.2747 25.8479 89.527C23.7835 87.8414 22.6937 85.4787 22.6992 82.6957C22.7075 77.6407 22.7102 72.586 22.7102 67.534V67.301C22.7129 61.922 22.7129 56.5404 22.7239 51.1617V49.9164C22.7267 49.7004 22.6608 49.49 22.5372 49.3167L21.829 48.31C19.5204 45.0324 17.5906 42.2434 15.7569 39.534C14.6753 37.9364 14.0631 35.9604 14.0357 33.9647C13.9945 31.0393 14 28.0911 14.0055 25.2368C14.0082 24.2901 14.0082 23.3633 14.0082 22.4394C14.0082 21.251 14.0082 18.7748 15.9051 16.7109C17.9282 14.5076 20.5059 14.5076 21.6039 14.5076H23.8906C30.1028 14.5047 36.6718 14.5047 43.422 14.5047C52.4041 14.5047 61.7071 14.5076 70.9222 14.5218C73.2199 14.5246 75.5343 15.5737 76.9644 17.2595C77.4803 17.8679 77.9937 18.4763 78.499 19.0819C78.79 19.4287 107.539 53.8367 109.7 56.404C111.251 58.2464 112.066 60.515 112.06 62.957C112.036 70.2007 112.036 77.5784 112.036 84.714Z" fill="#003870"/>
<path d="M95.9769 49.8653C94.5138 48.1026 93.0505 46.34 91.398 44.35C91.3622 44.9696 91.3294 45.2966 91.3294 45.6263C91.3268 57.3023 91.3294 68.9753 91.3268 80.6513C91.3268 82.053 91.2991 82.07 89.9843 82.07C80.6703 82.0673 71.3559 82.087 62.039 82.0416C61.1773 82.0386 60.8699 82.2916 60.7845 82.9143V111.182C64.7405 114.596 68.6961 118.011 72.6572 121.419C73.0581 121.763 73.6755 121.991 74.1972 122.002C76.8958 122.059 79.5969 121.982 82.2954 122.053C83.3221 122.079 83.6047 121.763 83.5992 120.697C83.558 112.168 83.5908 103.639 83.5554 95.1106C83.5499 94.0643 83.8241 93.7346 84.8647 93.7433C91.3787 93.7913 97.893 93.7686 104.404 93.763C105.741 93.763 105.747 93.7516 105.747 92.3926C105.749 82.5703 105.741 72.748 105.766 62.9256C105.768 62.0243 105.522 61.342 104.953 60.6656C101.942 57.0863 98.9664 53.47 95.9769 49.8653Z" fill="#003870"/>
<path d="M120.246 46.8717C118.102 44.3243 89.3665 9.9361 89.0755 9.5864C88.5374 8.9439 88.0076 8.3156 87.4778 7.69017C83.4152 2.89411 77.2306 0.0255865 70.9361 0.0170577C62.8131 0.0056859 54.0427 0 43.3395 0C36.6251 0 30.0752 0.00284294 23.8795 0.00284294H21.5929C13.5964 0.0056859 8.57012 3.65033 5.75913 6.7065C1.94069 10.86 0.00539816 16.1479 0.00539816 22.4223C0.00539816 23.3406 0.00265305 24.2588 0.00265305 25.197C-0.00283714 28.1053 -0.00832733 31.1132 0.0355941 34.1607C0.104222 39.0337 1.61677 43.8923 4.29324 47.844C5.64934 49.8453 7.05206 51.8837 8.61127 54.1183C8.67991 54.2177 8.71836 54.337 8.71836 54.4567C8.71285 58.7323 8.71285 63.008 8.71011 67.284V67.5113C8.70737 72.5633 8.70737 77.6093 8.69912 82.6587C8.68816 89.8397 11.7764 96.4867 17.176 100.896C17.9282 101.51 18.7489 102.224 19.6191 102.977L27.2231 109.547L27.363 109.669C37.9537 118.818 48.9038 128.279 59.6947 137.567C63.6368 140.959 68.6384 142.886 73.7825 142.997C74.9465 143.023 76.0801 143.026 76.8297 143.026C77.2744 143.026 77.7053 143.026 78.12 143.023C78.5289 143.023 78.9408 143.02 79.3526 143.02C80.3625 143.02 81.1147 143.028 81.7901 143.045C82.0015 143.051 82.199 143.054 82.3969 143.054C88.1726 143.054 93.5445 140.828 97.525 136.791C101.656 132.598 103.913 126.844 103.883 120.589C103.874 118.664 103.866 116.714 103.863 114.767H104.423C110.611 114.764 115.796 112.66 119.84 108.521C123.944 104.316 126.027 98.8917 126.03 92.3983V84.9187C126.03 77.729 126.03 70.2917 126.049 62.9827C126.066 56.9753 124.059 51.4033 120.246 46.8717ZM125.218 84.9217V92.4013C125.215 98.6643 123.213 103.887 119.269 107.927C115.385 111.907 110.389 113.925 104.423 113.931H103.053C103.056 116.163 103.062 118.394 103.073 120.6C103.103 126.627 100.932 132.166 96.9594 136.2C93.133 140.083 87.9612 142.224 82.3995 142.224C82.21 142.224 82.0179 142.221 81.8149 142.215C81.1314 142.198 80.3735 142.19 79.3581 142.19C78.9462 142.19 78.5344 142.19 78.1255 142.193C77.7107 142.193 77.2799 142.195 76.8381 142.195C76.0914 142.195 74.9629 142.193 73.8073 142.167C68.9184 142.065 63.969 140.154 60.2219 136.933C49.4336 127.645 38.4806 118.184 27.8901 109.035L27.7501 108.913L20.1462 102.343C19.2705 101.584 18.4442 100.868 17.6838 100.245C12.4819 95.9977 9.50346 89.5897 9.51441 82.67C9.52266 77.621 9.5254 72.5717 9.5254 67.52V67.2923C9.5254 62.9057 9.52814 58.5163 9.53365 54.1297C9.53365 54.05 9.50893 53.9733 9.46501 53.908C7.83169 51.571 6.37128 49.45 4.96304 47.369C2.37716 43.554 0.91677 38.8603 0.850889 34.155C0.806966 31.1132 0.815203 28.1082 0.817949 25.2027C0.820694 24.2617 0.820694 23.3462 0.820694 22.428C0.82344 16.3753 2.68187 11.2836 6.35207 7.29213C10.2803 3.0192 15.4082 0.85004 21.5983 0.847197H23.885C30.0807 0.844353 36.6306 0.844353 43.345 0.844353C54.0482 0.844353 62.816 0.85004 70.9386 0.86141C77.0027 0.86994 82.9596 3.63043 86.8714 8.24737C87.4011 8.87283 87.9309 9.5011 88.4662 10.1408C88.7572 10.4876 117.493 44.876 119.637 47.426C123.318 51.8013 125.256 57.183 125.239 62.9853C125.218 70.2947 125.218 77.729 125.218 84.9217Z" fill="#003870"/>
<path d="M74.9742 47.6023C70.5929 47.6337 66.2119 47.6507 61.8306 47.6137C60.9495 47.605 60.7546 47.9407 60.7681 48.768C60.8068 51.281 60.782 53.794 60.7849 56.3073C60.7874 58.8547 60.8068 61.4047 60.7736 63.952C60.7626 64.7623 61.0401 65.0523 61.8335 65.0467C66.2145 65.021 70.5958 65.0237 74.9768 65.0493C75.7208 65.055 75.9899 64.7737 75.987 64.009C75.9677 58.8773 75.9651 53.7457 75.987 48.6143C75.9899 47.8327 75.707 47.5967 74.9742 47.6023Z" fill="#003870"/>
<path d="M43.916 94.2776V90.3743C43.8996 76.569 43.8996 62.7607 43.9299 48.9553C43.9324 47.8866 43.6443 47.5567 42.6231 47.6023C40.7702 47.679 38.9118 47.6276 37.0559 47.6276C35.5819 47.6276 35.5655 47.625 35.5626 46.0527C35.5546 41.9617 35.5571 37.8736 35.5626 33.7826C35.5655 32.2332 35.5765 32.2332 37.1027 32.2332C51.2785 32.2332 65.4514 32.2304 79.6272 32.2304H80.9394C80.717 31.8438 80.6539 31.6817 80.5466 31.5538C77.7852 28.2076 75.0345 24.853 72.2318 21.5438C71.9518 21.214 71.356 21.0235 70.9087 21.0235C54.4736 21.0008 38.0362 21.0065 21.6012 21.0122C20.289 21.0122 20.289 21.0207 20.2863 22.4336C20.2863 26.2432 20.2588 30.0527 20.311 33.8623C20.3192 34.5103 20.5333 35.2583 20.8929 35.787C23.3141 39.3606 25.7847 42.897 28.2773 46.4197C28.7824 47.133 29.0075 47.8383 29.0075 48.728C28.9827 60.0543 28.9965 71.3776 28.98 82.704C28.98 83.4346 29.1749 83.955 29.7349 84.4127C30.9784 85.4277 32.1863 86.4936 33.4051 87.5456C36.9077 90.5733 40.4135 93.5983 43.916 96.626V95.9806C43.8503 95.665 43.905 95.139 43.916 94.2776Z" fill="#003870"/>
</g>
</g>
</g>
<defs>
<clipPath id="clip0_21_64">
<rect width="126" height="143" fill="white"/>
</clipPath>
</defs>
</svg>
